<svg width="32" height="32" viewBox="0 0 32 32" fill="none" xmlns="http://www.w3.org/2000/svg">
<path d="M15.9999 18.6667C9.31988 18.6667 3.87988 23.1467 3.87988 28.6667C3.87988 29.0401 4.17322 29.3334 4.54655 29.3334H27.4532C27.8266 29.3334 28.1199 29.0401 28.1199 28.6667C28.1199 23.1467 22.6799 18.6667 15.9999 18.6667Z" fill="white"/>
<path d="M22.2933 13.8001L21.0133 12.5201C21.6799 11.5201 22.0666 10.3201 22.0666 9.02675C22.0666 5.50675 19.2133 2.66675 15.7066 2.66675C12.1999 2.66675 9.33325 5.52008 9.33325 9.02675C9.33325 12.5334 12.1866 15.3867 15.6933 15.3867C16.9866 15.3867 18.1866 15.0001 19.1866 14.3334L20.4666 15.6134C20.7199 15.8667 21.0533 15.9867 21.3733 15.9867C21.7066 15.9867 22.0399 15.8667 22.2799 15.6134C22.7866 15.1201 22.7866 14.3067 22.2933 13.8001Z" fill="white"/>
</svg>
